<svg id="enmo49J5CdL1" xmlns="http://www.w3.org/2000/svg" xmlns:xlink="http://www.w3.org/1999/xlink" viewBox="0 0 600 600" shape-rendering="geometricPrecision" text-rendering="geometricPrecision"><ellipse rx="295" ry="295" transform="translate(300 300)" fill="#f6f6f6"/><ellipse rx="96.266659" ry="93.194691" transform="matrix(.831025 0 0 0.858418 238.119992 326.920424)" fill="rgba(0,0,0,0.09)" stroke="#bfbcbc"/><ellipse rx="42.116663" ry="40.772677" transform="matrix(.831025 0 0 0.858418 335 226.926182)" fill="rgba(0,0,0,0.09)" stroke="#bfbcbc"/><ellipse rx="30.083331" ry="29.123341" transform="matrix(.831025 0 0 0.858418 151.222642 441.839679)" fill="rgba(0,0,0,0.09)" stroke="#bfbcbc"/><ellipse rx="30.083331" ry="29.123341" transform="matrix(.831025 0 0 0.858418 424.579044 351.920425)" fill="rgba(0,0,0,0.09)" stroke="#bfbcbc"/><ellipse rx="15.041665" ry="14.56167" transform="matrix(.831025 0 0 0.858418 262.5 70.314337)" fill="rgba(0,0,0,0.09)" stroke="#bfbcbc"/><ellipse rx="15.041665" ry="14.56167" transform="matrix(.831025 0 0 0.858418 424.579045 82.814337)" fill="rgba(0,0,0,0.09)" stroke="#bfbcbc"/><ellipse rx="15.041665" ry="14.56167" transform="matrix(.831025 0 0 0.858418 462.079044 515.527721)" fill="rgba(0,0,0,0.09)" stroke="#bfbcbc"/><ellipse rx="54.149995" ry="52.422014" transform="matrix(.831025 0 0 0.858418 114.677083 225.392166)" fill="rgba(0,0,0,0.09)" stroke="#bfbcbc"/></svg>
